<?xml version="1.0" encoding="utf-8"?>
<!-- Generator: Adobe Illustrator 19.1.0, SVG Export Plug-In . SVG Version: 6.00 Build 0)  -->
<svg version="1.1" id="Layer_1" xmlns="http://www.w3.org/2000/svg" xmlns:xlink="http://www.w3.org/1999/xlink" x="0px" y="0px"
	 viewBox="0 0 494 117" style="enable-background:new 0 0 494 117;" xml:space="preserve">
<g>
	<path d="M91.1,5h21.5v1.5l-9.2,2.3v99.8l9.2,2.3v1.5H81.1v-1.5l9.2-2.3V18.1l-33,96.7H55L18.2,18.1v89l10,3.8v1.5h-23v-1.5l10-3.8
		V9.6l-10-3.1V5h22.3L61,93.3L91.1,5z"/>
	<path d="M163.2,81h-31.5l-7.7,26.1l10,3.8v1.5h-23v-1.5l10-3.8L151,2.7h2.3l32.2,105.9l9.2,2.3v1.5h-32.2v-1.5l9.2-2.3L163.2,81z
		 M132.5,78.1h29.8L147,27.3L132.5,78.1z"/>
	<path d="M219.3,5c6.5,0,12.2,0.7,17,2.1c4.8,1.4,8.8,3.4,12,5.8c3.2,2.5,5.5,5.3,7.1,8.5c1.5,3.2,2.3,6.7,2.3,10.4
		c0,3-0.4,5.6-1.3,7.9c-0.9,2.3-2,4.4-3.4,6.1c-1.4,1.8-3,3.3-4.8,4.5c-1.8,1.2-3.7,2.3-5.5,3.1c-4.4,1.9-9.4,3.2-14.9,3.7
		c4.5,0.5,8.6,1.6,12.3,3.2c3.2,1.4,6.1,3.5,8.9,6.3c2.8,2.8,4.4,6.5,4.9,11.2l3.1,26.9c0.2,1.9,0.7,3.3,1.4,4.1
		c0.7,0.8,1.5,1.2,2.5,1.2c0.5,0,1-0.2,1.6-0.5c0.6-0.4,1.1-0.8,1.6-1.3c0.5-0.5,1-1.2,1.4-2l1.5,1.5c-0.6,1.3-1.5,2.5-2.6,3.5
		c-0.9,0.8-2.1,1.6-3.6,2.3c-1.5,0.7-3.2,1.1-5.3,1.1c-3.5,0-6.3-1-8.5-3c-2.2-2-3.5-4.3-3.8-7L240,77.9c-0.4-3.5-1.1-6.4-2-8.8
		c-0.9-2.4-2.2-4.4-3.8-5.9c-1.6-1.5-3.6-2.7-6.1-3.4c-2.5-0.7-5.4-1.1-8.9-1.1h-6.1v49.9l9.2,2.3v1.5h-31.5v-1.5l9.2-2.3V8.9
		l-9.2-2.3V5H219.3z M243.1,31.9c0-7.7-2-13.6-6.1-17.7c-4.1-4.1-10-6.1-17.7-6.1h-6.1v47.6h6.1c7.7,0,13.6-2,17.7-6.1
		C241,45.4,243.1,39.6,243.1,31.9z"/>
	<path d="M312.1,81h-31.5l-7.7,26.1l10,3.8v1.5h-23v-1.5l10-3.8L299.9,2.7h2.3l32.2,105.9l9.2,2.3v1.5h-32.2v-1.5l9.2-2.3L312.1,81z
		 M281.4,78.1h29.8l-15.3-50.8L281.4,78.1z"/>
	<path d="M403.5,10.4l-10-3.8V5h23v1.5l-10,3.8V114h-2.3L352,18.1v89l10,3.8v1.5h-23v-1.5l10-3.8V9.6l-10-3.1V5h20.7l43.7,80.6V10.4
		z"/>
	<path d="M458.7,81h-31.5l-7.7,26.1l10,3.8v1.5h-23v-1.5l10-3.8L446.4,2.7h2.3L481,108.6l9.2,2.3v1.5H458v-1.5l9.2-2.3L458.7,81z
		 M428,78.1h29.8l-15.3-50.8L428,78.1z"/>
</g>
</svg>
